<svg height="200" viewBox="0 0 1024 1024" width="200" xmlns="http://www.w3.org/2000/svg" t="1717468583969" p-id="1273"><path d="m860.12 566.32c0 139.05-112.73 251.76-251.76 251.76-94.38 0-176.61-51.92-219.72-128.75-20.08-35.79-31.67-77-32.03-120.87 1.18 84 69.01 151.88 153.01 153.11.77.01 1.54.01 2.31.01.73 0 1.48 0 2.21-.01 138.02-1.14 249.55-113.39 249.55-251.68 0-44.77-11.69-86.79-32.18-123.21-41.78-74.28-120.17-125.22-210.71-128.33 185.26 4.59 334.58 153.89 339.17 339.17.04 1.01.06 2.01.07 3.02.02.97.05 1.93.05 2.88.03.97.03 1.93.03 2.9z" fill="#8278f4" p-id="1274"/><path d="m731.51 346.68c20.49 36.42 32.18 78.44 32.18 123.21 0 138.29-111.53 250.53-249.55 251.68 84.77-1.18 153.12-70.27 153.12-155.32 0-85.76-69.51-155.3-155.26-155.34h-.07c-28.33-.02-53.92-12.45-71.58-32.1-15.34-17.07-24.7-39.62-24.7-64.25 0-26.49 10.84-50.59 28.3-68.06 17.47-17.46 41.55-28.3 68.06-28.3 1.27 0 2.54.01 3.8.04.66.01 1.32.02 1.98.04 1.01.01 2.01.04 3.02.07 90.53 3.11 168.92 54.05 210.7 128.33z" fill="#a9a0ff" p-id="1275"/><path d="m356.6 568.46c.36 43.88 11.95 85.08 32.03 120.87 43.12 76.83 125.35 128.75 219.72 128.75 139.04 0 251.76-112.72 251.76-251.76 0 192.26-155.86 348.12-348.12 348.12-55.85 0-108.64-13.15-155.41-36.53-114.26-57.1-192.71-175.18-192.71-311.59v-360.4c0-52.99 43.35-96.35 96.35-96.35 26.49 0 50.58 10.84 68.04 28.31 17.47 17.46 28.31 41.55 28.31 68.04v360.73c.02.6.03 1.21.03 1.81z" fill="#5b4fdc" p-id="1276"/></svg>